<?xml version="1.0" encoding="utf-8"?>
<!-- Generator: Adobe Illustrator 21.1.0, SVG Export Plug-In . SVG Version: 6.00 Build 0)  -->
<svg version="1.1" id="Capa_1" xmlns="http://www.w3.org/2000/svg" xmlns:xlink="http://www.w3.org/1999/xlink" x="0px" y="0px"
	 viewBox="0 0 30.3 30.3" style="enable-background:new 0 0 30.3 30.3;" xml:space="preserve">
<style type="text/css">
	.st0{fill:#9965AB;}
</style>
<g>
	<path class="st0" d="M22.6,12.5c0,0,1.2-0.9,0.3-1.9c-0.9-0.9-1.8,0.3-1.8,0.3l-9.4,9.4c0,0-2.2,2.8-3.9,1.1
		c-1.7-1.7,1.1-3.9,1.1-3.9L21.2,5.2c0,0,2.9-3.2,5.6-0.5c2.7,2.7-0.5,5.6-0.5,5.6L12.4,24.2c0,0-4.4,5.1-8.5,1S5,16.7,5,16.7
		L15.5,6.2c0,0,1.2-1,0.3-1.9c-0.9-0.9-1.9,0.3-1.9,0.3L1.9,16.7c0,0-4.5,5,0.5,10.1c5.1,5.1,10.1,0.5,10.1,0.5L29,10.7
		c0,0,3.3-3.7-0.6-7.6s-7.6-0.6-7.6-0.6L6.5,16.7c0,0-3.7,3-0.3,6.3c3.3,3.3,6.2-0.4,6.2-0.4L22.6,12.5z"/>
</g>
</svg>
