<?xml version="1.0" encoding="UTF-8" standalone="no"?>
<!-- Generator: Adobe Illustrator 21.1.0, SVG Export Plug-In . SVG Version: 6.00 Build 0)  -->

<svg
   xmlns:dc="http://purl.org/dc/elements/1.1/"
   xmlns:cc="http://creativecommons.org/ns#"
   xmlns:rdf="http://www.w3.org/1999/02/22-rdf-syntax-ns#"
   xmlns:svg="http://www.w3.org/2000/svg"
   xmlns="http://www.w3.org/2000/svg"
   xmlns:xlink="http://www.w3.org/1999/xlink"
   xmlns:sodipodi="http://sodipodi.sourceforge.net/DTD/sodipodi-0.dtd"
   xmlns:inkscape="http://www.inkscape.org/namespaces/inkscape"
   version="1.1"
   id="Capa_1"
   x="0px"
   y="0px"
   viewBox="0 0 439 235.5"
   style="enable-background:new 0 0 439 235.5;"
   xml:space="preserve"
   sodipodi:docname="logo.svg"
   inkscape:version="0.92.3 (2405546, 2018-03-11)"><metadata
   id="metadata57"><rdf:RDF><cc:Work
       rdf:about=""><dc:format>image/svg+xml</dc:format><dc:type
         rdf:resource="http://purl.org/dc/dcmitype/StillImage" /><dc:title></dc:title></cc:Work></rdf:RDF></metadata><defs
   id="defs55" /><sodipodi:namedview
   pagecolor="#ffffff"
   bordercolor="#666666"
   borderopacity="1"
   objecttolerance="10"
   gridtolerance="10"
   guidetolerance="10"
   inkscape:pageopacity="0"
   inkscape:pageshadow="2"
   inkscape:window-width="1366"
   inkscape:window-height="700"
   id="namedview53"
   showgrid="false"
   inkscape:zoom="0.74487472"
   inkscape:cx="219.5"
   inkscape:cy="117.75"
   inkscape:window-x="0"
   inkscape:window-y="0"
   inkscape:window-maximized="1"
   inkscape:current-layer="Capa_1" />
<style
   type="text/css"
   id="style2">
	.st0{clip-path:url(#SVGID_2_);fill:#FFFFFF;}
	.st1{clip-path:url(#SVGID_2_);fill:#E45F49;}
</style>
<g
   id="g50">
	<defs
   id="defs5">
		<rect
   id="SVGID_1_"
   width="439"
   height="235.5" />
	</defs>
	<clipPath
   id="SVGID_2_">
		<use
   xlink:href="#SVGID_1_"
   style="overflow:visible;"
   id="use7" />
	</clipPath>
	<path
   class="st0"
   d="M301.2,57.7c-3.1-7.3-7.5-13.8-13.2-19.4c-5.5-5.3-11.6-9.3-18.2-12c-6.6-2.7-13.9-4-21.7-4   c-7.4,0-14.6,1.5-21.4,4.5c-6.8,3-13,7.4-18.4,12.9c-5.3,5.5-9.4,11.8-12.2,18.8c-2.8,7-4.2,14.5-4.2,22.3c0,7.7,1.4,15.2,4,22.1   c2.7,7,6.7,13.4,12,19.2c5.5,5.9,11.6,10.4,18.4,13.4c6.7,3,14.2,4.5,22.3,4.5c8.1,0,15.6-1.5,22.5-4.4c0.2-0.1,0.3-0.1,0.5-0.2   c-0.9,5.1-2.9,9.3-5.9,12.6c-4.3,4.8-9.9,7.1-17.2,7.1c-7.4,0-13.1-2.3-17.4-6.9c-1.3-1.4-2.4-3-3.2-4.7c0,0,0,0,0,0   c-0.3-0.8-1-1.4-1.9-1.4c-0.3,0-0.5,0-0.7,0.1h0l-28,6.5c0,0,0,0,0,0l-0.1,0c0,0,0,0,0,0c-0.8,0.2-1.4,1-1.4,1.9c0,0.1,0,0.2,0,0.2   c0,0.1,0,0.2,0,0.3c2.7,7,6.7,13.4,12,19.2c5.5,5.9,11.6,10.4,18.4,13.4c6.7,3,14.2,4.5,22.3,4.5c8.1,0,15.6-1.5,22.5-4.4   c6.9-2.9,13.1-7.3,18.5-13c5.4-5.6,9.5-12.1,12.2-19.1c2.7-7,4-14.8,4-23.2c0-5.7,0.1-31.1,0.2-43.9c0.1-1.4,0.1-2.9,0.1-4.4   C305.8,72.6,304.3,65,301.2,57.7 M248.7,106.9c-13.1,0-23.7-11.5-23.7-25.7c0-14.2,10.6-25.7,23.7-25.7c13.1,0,23.7,11.5,23.7,25.7   C272.4,95.4,261.8,106.9,248.7,106.9"
   clip-path="url(#SVGID_2_)"
   id="path10" />
	<path
   class="st0"
   d="M424,57.5c-3.1-7.3-7.5-13.8-13.2-19.4c-5.5-5.3-11.6-9.3-18.2-12c-6.6-2.7-13.9-4-21.7-4   c-7.4,0-14.6,1.5-21.4,4.5c-6.8,3-13,7.4-18.4,12.9c-5.3,5.5-9.4,11.8-12.2,18.8c-2.8,7-4.2,14.5-4.2,22.3c0,7.7,1.4,15.2,4,22.1   c2.7,7,6.7,13.4,12,19.2c5.5,5.9,11.6,10.4,18.4,13.4c6.7,3,14.2,4.5,22.3,4.5c8.1,0,15.6-1.5,22.5-4.4c6.9-2.9,13.1-7.3,18.5-13   c5.4-5.6,9.5-12.1,12.2-19.1c2.7-7,4-14.8,4-23.2C428.6,72.4,427.1,64.8,424,57.5 M388.8,99.5c-4.3,4.8-9.9,7.1-17.2,7.1   c-7.4,0-13.1-2.3-17.4-6.9c-4.2-4.6-6.4-11.1-6.4-19.2c0-7.6,2.2-13.6,6.6-18.4c4.4-4.7,10-7,17.1-7c6.9,0,12.4,2.3,17,6.9   c4.5,4.7,6.7,10.6,6.7,17.9C395.3,88.2,393.1,94.8,388.8,99.5"
   clip-path="url(#SVGID_2_)"
   id="path12" />
	<path
   class="st0"
   d="M183.1,29.5c0-1-0.7-1.8-1.7-2c-0.1,0-0.7,0-0.8,0h-30.6c-0.1,0-0.2,0-0.2,0c-0.1,0-0.2,0-0.2,0   c-1,0.1-1.8,1-1.8,2v0v0v61.9c0,5.1-1.2,9-3.6,11.9c-2.4,2.8-5.9,3.3-10.4,3.3c-4.5,0-7.9-0.5-10.4-3.3c-2.4-2.8-3.6-6.8-3.6-11.9   V29.9c0-0.1,0-0.4,0-0.5c-0.1-1-0.9-1.8-1.9-1.8h-0.2H86.2l0,0c-1.1,0.1-1.9,0.9-2,2c0,0,0,0.1,0,0.1c0,0,0,0.1,0,0.1v65.6   c0,6.3,1,12.1,3,17.5c2,5.4,5,10.1,9.1,14.1c4.1,4,9.2,7.1,15.3,9.4c6.1,2.3,13.3,3.4,21.5,3.4c8.3,0,15.5-1.1,21.7-3.4   c6.2-2.3,11.4-5.4,15.6-9.4c4.2-4,7.3-8.7,9.5-14.1c2.1-5.4,3.2-11.3,3.2-17.5V29.7C183.1,29.6,183.1,29.6,183.1,29.5   C183.1,29.6,183.1,29.6,183.1,29.5"
   clip-path="url(#SVGID_2_)"
   id="path14" />
	<path
   class="st0"
   d="M75.5,108.9c0-0.1,0-0.1,0-0.2c0-0.1,0-0.1,0-0.2c0-0.1,0-0.1,0-0.2c-0.2-0.9-1-1.7-2-1.7c0,0-0.1,0-0.1,0   c0,0,0,0,0,0s-5,0-7.7,0c-4.5,0-7.8-0.7-10.3-3.5c-2.4-2.8-3.7-6.8-3.7-11.9v-32h21.5c0,0,0,0,0.1,0c0,0,0,0,0.1,0   c1.1,0,1.9-0.9,2-1.9V29.7l0,0c0,0,0,0,0,0c0-1.1-0.8-2-1.9-2.1l0,0h-3.9v0H51.9V2.1c0,0,0,0,0,0c0,0,0,0,0,0V2l0,0   C51.9,0.9,51,0,49.9,0c-0.2,0-0.3,0-0.5,0.1l0,0L17.8,7.4c-0.2,0-0.4,0.1-0.5,0.1c-0.7,0.3-1.2,0.9-1.3,1.7c0,0.1,0,0.2,0,0.2   c0,0.1,0,0.2,0,0.2v18.2H2.3c-0.1,0-0.1,0-0.2,0c-0.1,0-0.1,0-0.2,0C1,27.9,0.2,28.6,0,29.5c0,0.1,0,0.2,0,0.4c0,0.1,0,0.3,0,0.4   v26.8c0,0,0,0.1,0,0.2c0,1.1,1,2,2.1,2l0,0h14.2v35.9c0,6.3,1,12.1,3,17.5c2,5.4,5,10.1,9.1,14.1c4.1,4,9.2,7.1,15.3,9.4   c6.1,2.3,13.3,3.4,21.5,3.4c3.6,0,5,0,8.2-0.4l0,0c0,0,0,0,0,0c1,0,1.9-0.8,2-1.8c0-0.1,0-0.1,0-0.2s0-0.1,0-0.2v-27.9   C75.5,109,75.5,109,75.5,108.9"
   clip-path="url(#SVGID_2_)"
   id="path16" />
	<path
   class="st1"
   d="M437.3,0.2C437.3,0.2,437.3,0.2,437.3,0.2L437.3,0.2l-25.1,0l0,0c-0.1,0-0.1,0-0.2,0c-0.7,0-1.3,0.4-1.5,1h0   l-10.5,19.3l0,0c-0.2,0.3-0.3,0.6-0.3,0.9v0v0c0,0.9,0.7,1.7,1.7,1.7c0.2,0,0.4,0,0.5-0.1c0.2,0,0.3-0.1,0.4-0.2l0,0l35.4-19.4   c0.2-0.1,0.3-0.2,0.5-0.3c0.4-0.3,0.6-0.8,0.6-1.3C439,0.9,438.3,0.2,437.3,0.2"
   clip-path="url(#SVGID_2_)"
   id="path18" />
	<path
   class="st0"
   d="M11.4,235.2v-29h7.9c7.7,0,14.1,4.3,14.1,14.9c0,10-5.5,14.1-12.7,14.1H11.4z M20.7,232c5.3,0,8.8-3.6,8.8-11   c0-7.8-3.9-11.6-10.2-11.6h-3.9V232H20.7z"
   clip-path="url(#SVGID_2_)"
   id="path20" />
	<rect
   x="39.7"
   y="206.2"
   class="st0"
   width="4"
   height="29"
   clip-path="url(#SVGID_2_)"
   id="rect22" />
	<path
   class="st0"
   d="M68.1,213.2c0,0-1.7-4-7.4-4c-4,0-6.1,2.1-6.1,4.6c0,8,16.7,2.2,16.7,13.6c0,4.2-3.3,8.1-10.5,8.1   c-8.7,0-11.3-5.7-11.3-5.7l2.4-2.2c0,0,2.7,4.7,9,4.7c4,0,6.3-1.9,6.3-4.8c0-8.4-16.9-2.2-16.9-13.7c0-4.3,3.6-7.9,10.1-7.9   c8.5,0,10.4,5.5,10.4,5.5L68.1,213.2z"
   clip-path="url(#SVGID_2_)"
   id="path24" />
	<polygon
   class="st0"
   points="77.3,235.2 77.3,206.2 94.9,206.2 94.9,209.4 81.3,209.4 81.3,219.2 92.6,219.2 92.6,222.3    81.3,222.3 81.3,232 94.9,232 94.9,235.2  "
   clip-path="url(#SVGID_2_)"
   id="polygon26" />
	<path
   class="st0"
   d="M117.9,235.2l-13.3-22v22h-4v-29h4.2l13.3,22.3v-22.3h3.9v29H117.9z M105.9,201.8c0,0-0.5-0.7-0.5-1.9   c0-1.7,1-3.1,3.1-3.1c2.6,0,4.4,1.9,6.3,1.9c0.7,0,1.2-0.4,1.2-1.2c0-0.9-0.4-1.7-0.4-1.7h2.1c0,0,0.4,0.8,0.4,1.9c0,1.6-1,3-3,3   c-3,0-4.6-1.9-6.3-1.9c-0.8,0-1.4,0.5-1.4,1.3c0,1,0.5,1.7,0.5,1.7H105.9z"
   clip-path="url(#SVGID_2_)"
   id="path28" />
	<path
   class="st0"
   d="M128.5,220.8c0-10.4,5.8-14.8,12.5-14.8c6.6,0,12.4,4.4,12.4,14.8c0,10.4-5.8,14.7-12.4,14.7   C134.4,235.5,128.5,231.2,128.5,220.8 M149.4,220.8c0-8.4-4.1-11.3-8.4-11.3c-4.3,0-8.4,2.9-8.4,11.3c0,8.4,4,11.3,8.4,11.3   S149.4,229.1,149.4,220.8"
   clip-path="url(#SVGID_2_)"
   id="path30" />
	<path
   class="st0"
   d="M173,235.2v-29h9.4c6.5,0,10.5,3.1,10.5,9.4c0,6.2-4.2,9.1-10.1,9.1h-5.9v10.5H173z M182.2,221.6   c4.6,0,6.7-2.1,6.7-6c0-3.7-2.2-6.2-6.9-6.2h-5.2v12.2H182.2z"
   clip-path="url(#SVGID_2_)"
   id="path32" />
	<path
   class="st0"
   d="M215.3,235.2l-2.9-8.1h-11.8l-2.9,8.1h-4.1l10.9-29h4.1l10.9,29H215.3z M206.5,210.6l-4.9,13.5h9.8   L206.5,210.6z"
   clip-path="url(#SVGID_2_)"
   id="path34" />
	<path
   class="st0"
   d="M248.1,235.2c0,0-1,0.2-2.2,0.2c-7.8,0-6.4-11.8-12.7-11.8h-4.8v11.7h-4v-29h9.7c6.4,0,10.1,2.6,10.1,8.7   c0,4.3-2.7,6.7-5.5,7.5c3.7,1.9,4.3,9.6,8.4,9.6h1.1V235.2z M233.7,220.5c3.7,0,6.6-1.9,6.6-5.5c0-3.4-2.3-5.6-6.4-5.6h-5.5v11.1   H233.7z"
   clip-path="url(#SVGID_2_)"
   id="path36" />
	<path
   class="st0"
   d="M272,235.2l-2.9-8.1h-11.8l-2.9,8.1h-4.1l10.9-29h4.1l10.9,29H272z M263.2,210.6l-4.9,13.5h9.9L263.2,210.6z"
   clip-path="url(#SVGID_2_)"
   id="path38" />
	<polygon
   class="st0"
   points="301.3,235.2 301.3,209.4 291,209.4 291,206.2 315.2,206.2 315.2,209.4 305.2,209.4 305.2,235.2  "
   clip-path="url(#SVGID_2_)"
   id="polygon40" />
	<path
   class="st0"
   d="M317.9,220.8c0-10.4,5.8-14.8,12.5-14.8c6.6,0,12.4,4.4,12.4,14.8c0,10.4-5.8,14.7-12.4,14.7   C323.8,235.5,317.9,231.2,317.9,220.8 M338.7,220.8c0-8.4-4.1-11.3-8.4-11.3c-4.3,0-8.4,2.9-8.4,11.3c0,8.4,4,11.3,8.4,11.3   C334.7,232.1,338.7,229.1,338.7,220.8"
   clip-path="url(#SVGID_2_)"
   id="path42" />
	<path
   class="st0"
   d="M349.2,235.2v-29h7.9c7.7,0,14.1,4.3,14.1,14.9c0,10-5.5,14.1-12.7,14.1H349.2z M358.4,232   c5.3,0,8.8-3.6,8.8-11c0-7.8-3.9-11.6-10.2-11.6h-3.9V232H358.4z"
   clip-path="url(#SVGID_2_)"
   id="path44" />
	<path
   class="st0"
   d="M376.2,220.8c0-10.4,5.8-14.8,12.5-14.8c6.6,0,12.4,4.4,12.4,14.8c0,10.4-5.8,14.7-12.4,14.7   C382.1,235.5,376.2,231.2,376.2,220.8 M397,220.8c0-8.4-4.1-11.3-8.4-11.3c-4.3,0-8.4,2.9-8.4,11.3c0,8.4,4,11.3,8.4,11.3   C393,232.1,397,229.1,397,220.8"
   clip-path="url(#SVGID_2_)"
   id="path46" />
	<path
   class="st0"
   d="M424.3,213.2c0,0-1.7-4-7.4-4c-4,0-6.1,2.1-6.1,4.6c0,8,16.7,2.2,16.7,13.6c0,4.2-3.3,8.1-10.5,8.1   c-8.7,0-11.3-5.7-11.3-5.7l2.4-2.2c0,0,2.7,4.7,9,4.7c4,0,6.3-1.9,6.3-4.8c0-8.4-16.9-2.2-16.9-13.7c0-4.3,3.6-7.9,10.1-7.9   c8.5,0,10.4,5.5,10.4,5.5L424.3,213.2z"
   clip-path="url(#SVGID_2_)"
   id="path48" />
</g>
</svg>